<?xml version="1.0" encoding="utf-8"?>
<!-- Generator: Adobe Illustrator 27.0.0, SVG Export Plug-In . SVG Version: 6.00 Build 0)  -->
<svg version="1.1" id="Layer_1" xmlns="http://www.w3.org/2000/svg" xmlns:xlink="http://www.w3.org/1999/xlink" x="0px" y="0px"
	 viewBox="0 0 329.1 512" style="enable-background:new 0 0 329.1 512;" xml:space="preserve">
<style type="text/css">
	.st0{fill:#FFFFFF;}
</style>
<g>
	<path class="st0" d="M146.1,73.6c0-9.1,0.2-18.3,0-27.4C145.3,20.4,127,1.4,101.4,0.5C82.6-0.2,63.8-0.2,45,0.5
		C19.7,1.4,1.1,20.2,0.4,45.4c-0.5,18.5-0.5,37.1,0,55.6c0.7,24.9,18.9,43.8,43.8,44.9c19.3,0.8,38.6,0.8,57.9,0
		c25.2-1,43.2-20.1,43.9-45.6C146.3,91.4,146.1,82.5,146.1,73.6z M256.3,146.1c8.6,0,17.3,0.2,25.9,0c26.8-0.6,46.1-19.5,46.6-46.2
		c0.4-17.8,0.4-35.5,0-53.3c-0.5-26.8-19.7-45.8-46.5-46.3c-17.5-0.3-35-0.3-52.5,0c-27.2,0.5-46.3,19.8-46.6,46.9
		c-0.2,17.3-0.2,34.5,0,51.8c0.3,27.2,19.4,46.4,46.5,47C238.5,146.3,247.4,146.1,256.3,146.1z M72.8,329c9.1,0,18.3,0.2,27.4,0
		c26-0.8,45.1-19.5,45.8-45.4c0.5-18.3,0.5-36.6,0-54.8c-0.7-25.7-19.4-44.6-45-45.4c-18.5-0.6-37.1-0.6-55.6,0
		c-25.3,0.8-44.2,19.4-45,44.6c-0.6,18.8-0.6,37.6,0,56.4c0.8,25.5,20,43.9,45.7,44.7C55,329.2,63.9,329,72.8,329z M255.8,329
		c9.1,0,18.3,0.3,27.4,0c26-0.8,45-19.6,45.6-45.6c0.5-18.3,0.5-36.6,0-54.8c-0.7-25.6-19.5-44.5-45.2-45.2
		c-18.5-0.5-37.1-0.6-55.6,0c-25.6,0.8-44.3,19.9-44.9,45.5c-0.4,18-0.4,36.1,0,54.1c0.5,26.3,19.6,45.3,46,46
		C238,329.2,246.9,329,255.8,329z M72.2,511.8c9.4,0,18.8,0.2,28.2,0c26-0.8,45-19.6,45.7-45.6c0.5-18.3,0.5-36.6,0-54.8
		c-0.7-25.4-19.1-44.2-44.4-45.2c-19-0.7-38.1-0.7-57.1,0c-25,1-43.4,19.7-44.1,44.6c-0.6,18.8-0.6,37.6,0,56.4
		c0.8,25.2,19.7,43.6,45.1,44.6C54.4,512.1,63.3,511.8,72.2,511.8z M328.9,438.6c0-8.6,0.2-17.3,0-25.9
		c-0.6-26.9-19.4-46.1-46.1-46.7c-17.8-0.4-35.5-0.4-53.3,0c-26.8,0.5-45.9,19.8-46.3,46.5c-0.3,17.5-0.2,35,0,52.6
		c0.4,26.8,19.4,46.1,46.1,46.7c17.8,0.4,35.5,0.4,53.3,0c26.8-0.5,45.7-19.7,46.3-46.5C329.1,456.4,328.9,447.5,328.9,438.6z"/>
	<path d="M146.1,73.6c0,8.9,0.2,17.8,0,26.7c-0.8,25.5-18.7,44.6-43.9,45.6c-19.3,0.8-38.6,0.8-57.9,0c-24.9-1-43.2-19.9-43.8-44.9
		c-0.5-18.5-0.5-37.1,0-55.6C1.1,20.2,19.7,1.4,45,0.5c18.8-0.6,37.6-0.7,56.3,0c25.6,0.9,43.9,20,44.7,45.7
		C146.3,55.3,146.1,64.5,146.1,73.6z"/>
	<path d="M256.3,146.1c-8.9,0-17.8,0.2-26.7,0c-27.1-0.6-46.2-19.9-46.5-47c-0.2-17.3-0.2-34.5,0-51.8c0.3-27.1,19.5-46.5,46.6-46.9
		c17.5-0.3,35-0.3,52.5,0c26.8,0.5,46,19.5,46.5,46.3c0.4,17.8,0.4,35.5,0,53.3c-0.6,26.7-19.8,45.6-46.6,46.2
		C273.6,146.3,264.9,146.1,256.3,146.1z"/>
	<path d="M72.8,329c-8.9,0-17.8,0.2-26.7,0c-25.7-0.8-44.9-19.2-45.7-44.7c-0.6-18.8-0.6-37.6,0-56.4c0.8-25.2,19.6-43.8,45-44.6
		c18.5-0.6,37.1-0.6,55.6,0c25.6,0.8,44.3,19.7,45,45.4c0.5,18.3,0.5,36.6,0,54.8c-0.7,26-19.7,44.7-45.8,45.4
		C91.1,329.2,81.9,329,72.8,329z"/>
	<path d="M255.8,329c-8.9,0-17.8,0.2-26.7,0c-26.4-0.8-45.5-19.8-46-46c-0.3-18-0.4-36.1,0-54.1c0.6-25.6,19.2-44.7,44.9-45.5
		c18.5-0.6,37.1-0.6,55.6,0c25.6,0.7,44.4,19.6,45.2,45.2c0.5,18.3,0.5,36.6,0,54.8c-0.7,26-19.6,44.8-45.6,45.6
		C274.1,329.2,264.9,329,255.8,329z"/>
	<path d="M72.2,511.8c-8.9,0-17.8,0.3-26.7-0.1c-25.3-1-44.2-19.4-45.1-44.6c-0.6-18.8-0.6-37.6,0-56.4
		c0.7-24.9,19.1-43.6,44.1-44.6c19-0.7,38.1-0.7,57.1,0c25.3,0.9,43.7,19.8,44.4,45.2c0.5,18.3,0.5,36.6,0,54.8
		c-0.7,26-19.6,44.7-45.7,45.6C91,512,81.6,511.8,72.2,511.8z"/>
	<path d="M328.9,438.6c0,8.9,0.2,17.8,0,26.7c-0.6,26.8-19.6,46-46.3,46.5c-17.8,0.3-35.5,0.4-53.3,0c-26.7-0.6-45.7-19.9-46.1-46.7
		c-0.2-17.5-0.3-35,0-52.6c0.4-26.7,19.5-45.9,46.3-46.5c17.8-0.4,35.5-0.4,53.3,0c26.7,0.6,45.6,19.8,46.1,46.7
		C329,421.3,328.9,430,328.9,438.6z"/>
</g>
</svg>
