<svg width="512" height="512" viewBox="0 0 512 512" fill="none" xmlns="http://www.w3.org/2000/svg">
<path d="M256 512C397.4 512 512 397.4 512 256C512 114.6 397.4 0 256 0C114.6 0 0 114.6 0 256C0 397.4 114.6 512 256 512ZM232 344V280H168C154.7 280 144 269.3 144 256C144 242.7 154.7 232 168 232H232V168C232 154.7 242.7 144 256 144C269.3 144 280 154.7 280 168V232H344C357.3 232 368 242.7 368 256C368 269.3 357.3 280 344 280H280V344C280 357.3 269.3 368 256 368C242.7 368 232 357.3 232 344Z" fill="black"/>
</svg>
